<svg width="56" height="56" viewBox="0 0 56 56" fill="none" xmlns="http://www.w3.org/2000/svg" class="tw-section-quote__marks" data-v-477a29cd="" data-v-048f5cd9=""><path d="M24.086 34.4229C24.086 31.6128 23.2163 29.2042 21.4767 27.197C19.7372 25.0561 17.5293 23.6511 14.853 22.982C15.1207 21.2425 15.7897 19.436 16.8602 17.5626C18.0645 15.5555 19.3357 13.9497 20.6738 12.7454L16.6595 9.33325C5.55317 16.6929 0 25.0561 0 34.4229C0 37.902 1.1374 40.8458 3.41219 43.2544C5.82079 45.5292 8.69773 46.6666 12.043 46.6666C15.3883 46.6666 18.1983 45.4623 20.4731 43.0537C22.8817 40.6451 24.086 37.7681 24.086 34.4229ZM56 34.4229C56 31.6128 55.1302 29.2042 53.3907 27.197C51.6511 25.0561 49.4433 23.6511 46.767 22.982C47.1685 21.1086 47.9044 19.2353 48.9749 17.3619C50.1792 15.4886 51.4504 13.9497 52.7885 12.7454L48.5735 9.33325C37.3333 16.9605 31.7133 25.3237 31.7133 34.4229C31.7133 37.7681 32.9176 40.6451 35.3262 43.0537C37.7348 45.4623 40.6117 46.6666 43.957 46.6666C47.1685 46.6666 49.9785 45.4623 52.3871 43.0537C54.7957 40.6451 56 37.7681 56 34.4229Z" fill="#bfe1a7" data-v-477a29cd="" data-v-048f5cd9="" data-darkreader-inline-fill="" style="--darkreader-inline-fill:#17162e;"></path></svg>