<?xml version="1.0" standalone="no"?>
<!DOCTYPE svg PUBLIC "-//W3C//DTD SVG 20010904//EN"
 "http://www.w3.org/TR/2001/REC-SVG-20010904/DTD/svg10.dtd">
<svg version="1.0" xmlns="http://www.w3.org/2000/svg"
 width="320.000000pt" height="320.000000pt" viewBox="0 0 320.000000 320.000000"
 preserveAspectRatio="xMidYMid meet">

<g transform="translate(0.000000,320.000000) scale(0.100000,-0.100000)"
fill="#000000" stroke="none">
<path d="M1413 3095 c-71 -36 -106 -89 -111 -169 -5 -73 15 -119 115 -271 77
-116 233 -316 242 -310 17 10 44 181 62 395 13 155 4 227 -36 296 -49 83 -170
110 -272 59z"/>
<path d="M1983 3070 c-108 -25 -154 -115 -188 -364 -18 -137 -37 -357 -31
-364 12 -11 174 120 321 261 116 110 159 172 171 245 14 90 -57 187 -160 217
-54 16 -65 17 -113 5z"/>
<path d="M968 2770 c-95 -51 -143 -182 -103 -278 35 -81 94 -115 276 -156 122
-27 419 -70 427 -61 9 9 -105 169 -216 301 -135 162 -195 207 -285 211 -47 3
-71 -1 -99 -17z"/>
<path d="M2256 2570 c-104 -53 -365 -227 -445 -296 -10 -9 15 -17 126 -39 279
-56 480 -63 561 -21 141 73 129 300 -20 377 -63 32 -130 26 -222 -21z"/>
<path d="M957 2209 c-48 -11 -107 -41 -129 -66 -67 -73 -62 -200 10 -284 44
-51 85 -69 155 -69 60 0 110 22 202 90 129 95 364 303 355 313 -22 23 -510 36
-593 16z"/>
<path d="M1840 2179 c0 -33 221 -358 305 -448 54 -59 131 -101 183 -101 98 0
193 92 208 204 14 99 -45 179 -165 225 -82 32 -262 79 -401 106 -47 8 -95 18
-107 21 -14 2 -23 0 -23 -7z"/>
<path d="M1555 2075 c-366 -261 -477 -389 -443 -512 20 -74 110 -133 203 -133
l38 0 -7 -42 c-36 -246 -34 -453 8 -613 48 -185 135 -335 265 -458 l71 -67 91
0 91 0 -74 73 c-263 262 -418 615 -418 955 0 128 6 152 45 168 69 28 111 108
159 299 19 73 68 373 64 385 -2 5 -43 -20 -93 -55z"/>
<path d="M1756 2102 c-19 -32 -76 -430 -76 -538 0 -70 4 -89 28 -135 36 -68
89 -99 174 -99 67 0 108 15 156 55 48 40 65 81 65 150 0 67 -21 116 -115 265
-52 82 -216 310 -223 310 -2 0 -6 -3 -9 -8z"/>
<path d="M713 900 c-50 -20 -35 -200 27 -326 84 -172 235 -264 432 -264 86 0
228 24 228 39 0 15 -84 148 -131 207 -106 134 -275 264 -409 316 -80 31 -118
38 -147 28z"/>
</g>
</svg>
